<svg width="512" height="512" viewBox="0 0 512 512" xmlns="http://www.w3.org/2000/svg">
  <defs>
    <linearGradient id="grad1" x1="0%" y1="0%" x2="100%" y2="100%">
      <stop offset="0%" style="stop-color:#3b82f6;stop-opacity:1" />
      <stop offset="100%" style="stop-color:#1d4ed8;stop-opacity:1" />
    </linearGradient>
    <linearGradient id="grad2" x1="0%" y1="0%" x2="100%" y2="100%">
      <stop offset="0%" style="stop-color:#f59e0b;stop-opacity:1" />
      <stop offset="100%" style="stop-color:#d97706;stop-opacity:1" />
    </linearGradient>
  </defs>
  
  <!-- Background Circle -->
  <circle cx="256" cy="256" r="240" fill="url(#grad1)" stroke="#1e40af" stroke-width="4"/>
  
  <!-- Wrench Icon -->
  <g transform="translate(256, 256)">
    <!-- Wrench Handle -->
    <rect x="-8" y="-80" width="16" height="120" rx="8" fill="white" opacity="0.9"/>
    
    <!-- Wrench Head -->
    <ellipse cx="0" cy="-90" rx="20" ry="12" fill="white" opacity="0.9"/>
    
    <!-- Wrench Jaw -->
    <rect x="-18" y="-102" width="36" height="8" rx="4" fill="white" opacity="0.9"/>
    <rect x="-14" y="-98" width="28" height="4" rx="2" fill="url(#grad1)"/>
  </g>
  
  <!-- Gear Icon -->
  <g transform="translate(320, 180) scale(0.6)">
    <circle cx="0" cy="0" r="40" fill="url(#grad2)" stroke="white" stroke-width="4"/>
    <circle cx="0" cy="0" r="20" fill="white"/>
    <!-- Gear Teeth -->
    <rect x="-4" y="-50" width="8" height="20" rx="4" fill="url(#grad2)"/>
    <rect x="-4" y="30" width="8" height="20" rx="4" fill="url(#grad2)"/>
    <rect x="-50" y="-4" width="20" height="8" rx="4" fill="url(#grad2)"/>
    <rect x="30" y="-4" width="20" height="8" rx="4" fill="url(#grad2)"/>
    <!-- Diagonal teeth -->
    <rect x="-32" y="-32" width="8" height="14" rx="4" fill="url(#grad2)" transform="rotate(45)"/>
    <rect x="24" y="-32" width="8" height="14" rx="4" fill="url(#grad2)" transform="rotate(-45)"/>
    <rect x="-32" y="18" width="8" height="14" rx="4" fill="url(#grad2)" transform="rotate(-45)"/>
    <rect x="24" y="18" width="8" height="14" rx="4" fill="url(#grad2)" transform="rotate(45)"/>
  </g>
  
  <!-- Shield Icon (Security) -->
  <g transform="translate(190, 180) scale(0.5)">
    <path d="M0,-60 L30,-45 L30,0 C30,20 20,35 0,45 C-20,35 -30,20 -30,0 L-30,-45 Z" fill="white" opacity="0.9"/>
    <path d="M0,-45 L20,-35 L20,0 C20,15 12,25 0,32 C-12,25 -20,15 -20,0 L-20,-35 Z" fill="url(#grad1)"/>
    <!-- Checkmark -->
    <path d="M-8,0 L-2,8 L12,-8" stroke="white" stroke-width="3" fill="none" stroke-linecap="round" stroke-linejoin="round"/>
  </g>
  
  <!-- Ticket/Document Icon -->
  <g transform="translate(256, 350) scale(0.7)">
    <rect x="-25" y="-20" width="50" height="40" rx="4" fill="white" opacity="0.9"/>
    <rect x="-20" y="-15" width="40" height="30" rx="2" fill="url(#grad1)"/>
    <!-- Document lines -->
    <rect x="-15" y="-10" width="20" height="2" rx="1" fill="white"/>
    <rect x="-15" y="-5" width="25" height="2" rx="1" fill="white"/>
    <rect x="-15" y="0" width="15" height="2" rx="1" fill="white"/>
    <rect x="-15" y="5" width="30" height="2" rx="1" fill="white"/>
  </g>
</svg>
